<?xml version="1.0" encoding="UTF-8" standalone="no"?>
<!-- Created with Inkscape (http://www.inkscape.org/) -->

<svg
   width="414.18341mm"
   height="53.184772mm"
   viewBox="0 0 414.18341 53.184772"
   version="1.1"
   id="svg5"
   inkscape:version="1.1.2 (b8e25be833, 2022-02-05)"
   sodipodi:docname="spot_ladder_real.svg"
   xmlns:inkscape="http://www.inkscape.org/namespaces/inkscape"
   xmlns:sodipodi="http://sodipodi.sourceforge.net/DTD/sodipodi-0.dtd"
   xmlns="http://www.w3.org/2000/svg"
   xmlns:svg="http://www.w3.org/2000/svg">
  <sodipodi:namedview
     id="namedview7"
     pagecolor="#505050"
     bordercolor="#ffffff"
     borderopacity="1"
     inkscape:pageshadow="0"
     inkscape:pageopacity="0"
     inkscape:pagecheckerboard="false"
     inkscape:document-units="mm"
     showgrid="false"
     showborder="false"
     inkscape:zoom="0.17772518"
     inkscape:cx="188.49327"
     inkscape:cy="-177.23994"
     inkscape:window-width="1920"
     inkscape:window-height="991"
     inkscape:window-x="-9"
     inkscape:window-y="-9"
     inkscape:window-maximized="1"
     inkscape:current-layer="layer1"
     fit-margin-top="0"
     fit-margin-left="0"
     fit-margin-right="0"
     fit-margin-bottom="0"
     inkscape:object-paths="false" />
  <defs
     id="defs2">
    <filter
       id="selectable_hidder_filter"
       width="1"
       height="1"
       x="0"
       y="0"
       style="color-interpolation-filters:sRGB;"
       inkscape:label="LPE boolean visibility">
      <feComposite
         id="boolops_hidder_primitive"
         result="composite1"
         operator="arithmetic"
         in2="SourceGraphic"
         in="BackgroundImage" />
    </filter>
    <inkscape:path-effect
       effect="bool_op"
       id="path-effect949"
       is_visible="true"
       lpeversion="1"
       operand-path=""
       operation="cut"
       swap-operands="false"
       rmv-inner="false"
       filltype-this="from-curve"
       filter=""
       filltype-operand="from-curve" />
  </defs>
  <g
     inkscape:label="Layer 1"
     inkscape:groupmode="layer"
     id="layer1"
     transform="translate(-3.2024357,-120.38777)">
    <g
       id="g18311"
       transform="translate(412.37593,-139.19719)">
      <path
         id="path8331"
         style="opacity:1;fill:#1db954;fill-opacity:1;stroke:#000000;stroke-width:4.23973;stroke-linecap:round;stroke-opacity:0"
         d="m -298.23488,262.8163 a 26.59262,26.59262 0 0 0 -19.59123,-2.32699 26.59262,26.59262 0 0 0 -18.80374,32.56902 26.59262,26.59262 0 0 0 32.56902,18.80372 26.59262,26.59262 0 0 0 18.80372,-32.56901 26.59262,26.59262 0 0 0 -12.97777,-16.47674 z m -13.78839,7.63933 c 0.67685,0.39079 0.90722,1.25055 0.51644,1.92741 l -2.63333,4.56105 12.78949,7.38402 2.61707,-4.53291 c 0.39081,-0.67687 1.25067,-0.90675 1.92756,-0.51594 0.67685,0.39079 0.9071,1.25004 0.5163,1.9269 l -11.64684,20.17292 c -0.3908,0.67688 -1.25025,0.90744 -1.9271,0.51666 -0.67688,-0.39079 -0.90754,-1.25074 -0.51676,-1.92762 l 2.61689,-4.53259 -12.78948,-7.38401 -2.60067,4.50445 c -0.39077,0.67687 -1.25034,0.90694 -1.92721,0.51615 -0.67688,-0.3908 -0.90711,-1.25005 -0.51632,-1.92691 l 11.64685,-20.17294 c 0.39079,-0.67688 1.25023,-0.90743 1.92711,-0.51664 z m -3.52767,8.93202 -3.59131,6.22031 12.78949,7.38404 3.59131,-6.22034 z" />
      <text
         xml:space="preserve"
         style="font-style:normal;font-variant:normal;font-weight:500;font-stretch:normal;font-size:58.1767px;line-height:1.25;font-family:Poppins;-inkscape-font-specification:'Poppins Medium';letter-spacing:2.64583px;fill:#ffffff;stroke-width:1.45441"
         x="-412.54773"
         y="306.45023"
         id="text838"><tspan
           sodipodi:role="line"
           id="tspan836"
           style="font-style:normal;font-variant:normal;font-weight:500;font-stretch:normal;font-family:Poppins;-inkscape-font-specification:'Poppins Medium';fill:#ffffff;stroke-width:1.45441"
           x="-412.54773"
           y="306.45023">SP</tspan></text>
      <text
         xml:space="preserve"
         style="font-style:normal;font-variant:normal;font-weight:500;font-stretch:normal;font-size:56.086px;line-height:1.25;font-family:Poppins;-inkscape-font-specification:'Poppins Medium';letter-spacing:2.64583px;fill:#ffffff;stroke-width:1.40215"
         x="-281.94827"
         y="305.69357"
         id="text842"><tspan
           sodipodi:role="line"
           id="tspan840"
           style="font-style:normal;font-variant:normal;font-weight:500;font-stretch:normal;font-family:Poppins;-inkscape-font-specification:'Poppins Medium';fill:#ffffff;stroke-width:1.40215"
           x="-281.94827"
           y="305.69357">T  LADDER</tspan></text>
    </g>
  </g>
</svg>
